<svg version="1.1" xmlns="http://www.w3.org/2000/svg" xmlns:xlink="http://www.w3.org/1999/xlink" x="0px" y="0px" viewBox="-455 265.8971252 48.936615 31.1028843"
	 enable-background="new -455 265.8971252 48.936615 31.1028843" xml:space="preserve">
<g>
	<path d="M-436.9278564,265.8971252h-6.3865967l-9.462677,27.0441284L-455,293.2610779V297h10.5967102v-3.7389221
		l-2.1581726-0.3845215l1.367157-4.2723694h10.0828247l1.367157,4.2723694l-2.1581726,0.3845215V297h10.5954895v-3.7389221
		l-2.2216187-0.3198242L-436.9278564,265.8971252z M-443.7197266,284.0119934l3.5033569-10.9586487h0.1269531l3.5033569,10.9586487
		H-443.7197266z"/>
	<polygon points="-406.063385,281.2990417 -411.4558105,281.2990417 -411.4558105,275.9065247 
		-416.2622375,275.9065247 -416.2622375,281.2990417 -421.6547241,281.2990417 -421.6547241,286.1054688 -416.2622375,286.1054688 
		-416.2622375,291.4978638 -411.4558105,291.4978638 -411.4558105,286.1054688 -406.063385,286.1054688 	"/>
</g>
</svg>
